<?xml version="1.0" standalone="no"?>
<!DOCTYPE svg PUBLIC "-//W3C//DTD SVG 20010904//EN"
 "http://www.w3.org/TR/2001/REC-SVG-20010904/DTD/svg10.dtd">
<svg version="1.0" xmlns="http://www.w3.org/2000/svg"
 width="1024.000000pt" height="1024.000000pt" viewBox="0 0 1024.000000 1024.000000"
 preserveAspectRatio="xMidYMid meet">

<g transform="translate(0.000000,1024.000000) scale(0.100000,-0.100000)"
fill="#000000" stroke="none">
<path d="M5658 9205 c-42 -24 -119 -72 -170 -106 -51 -34 -114 -74 -139 -89
-26 -16 -86 -59 -135 -97 -49 -38 -141 -102 -204 -143 -251 -161 -357 -230
-405 -264 -27 -20 -93 -64 -145 -97 -52 -34 -118 -80 -147 -103 -28 -22 -82
-59 -119 -81 -79 -47 -268 -169 -304 -196 -34 -25 -395 -266 -725 -484 -148
-99 -279 -188 -290 -198 -11 -11 -65 -48 -120 -82 -55 -35 -113 -73 -130 -85
-16 -12 -79 -54 -140 -94 -60 -40 -137 -91 -170 -115 -33 -23 -130 -89 -216
-147 -86 -58 -164 -113 -175 -122 -10 -10 -50 -39 -89 -65 -38 -25 -128 -87
-200 -138 -71 -50 -137 -94 -146 -97 -8 -4 -50 -32 -93 -62 -42 -30 -120 -86
-174 -124 -53 -38 -99 -70 -100 -72 -2 -1 10 -29 26 -61 17 -32 61 -119 97
-193 37 -74 74 -139 81 -143 8 -4 14 -16 14 -25 -1 -22 122 -272 133 -272 9 0
182 115 416 275 68 47 128 85 132 85 5 0 10 -1050 11 -2387 l3 -2388 3496 -3
3496 -2 0 2385 c0 1312 3 2388 6 2392 4 3 44 -21 89 -54 46 -32 96 -68 112
-78 16 -11 39 -27 51 -35 12 -8 46 -31 76 -51 30 -20 98 -68 153 -107 54 -40
102 -70 106 -67 4 2 22 44 40 92 48 129 124 303 228 522 23 47 39 88 37 91 -2
4 -35 28 -72 53 -37 26 -86 60 -108 76 -22 17 -107 76 -190 132 -82 56 -152
105 -155 109 -3 3 -43 32 -90 63 -47 32 -130 91 -185 131 l-100 73 -3 727 -2
726 -493 -2 -492 -3 -2 -300 c-1 -165 -2 -315 -2 -333 l-1 -32 -82 63 c-46 34
-120 88 -165 120 -45 32 -93 67 -105 77 -13 11 -153 117 -313 236 -159 119
-327 247 -372 285 -45 37 -99 79 -120 92 -21 13 -81 57 -133 98 -52 41 -169
129 -260 197 -91 67 -196 148 -235 178 -223 177 -356 274 -435 322 -39 23 -71
42 -73 41 -1 0 -37 -21 -79 -44z m-389 -3975 l-4 -850 -860 2 -860 3 -3 848
-3 847 866 0 867 0 -3 -850z m2031 1 l0 -851 -860 0 -860 0 -1 83 c-1 72 -1
1526 1 1584 0 29 -46 27 913 31 l807 3 0 -850z m-2032 -1898 l-3 -838 -856 -3
-857 -2 -4 24 c-7 37 -10 1634 -3 1646 4 7 295 10 866 10 l859 0 -2 -837z
m2030 -10 l2 -833 -792 -1 c-436 0 -823 -2 -860 -5 l-68 -5 0 68 c0 37 -2 412
-5 832 -2 420 -2 768 1 773 3 4 391 7 862 6 l857 -3 3 -832z"/>
<path d="M10080 80 l0 -80 80 0 80 0 0 80 0 80 -80 0 -80 0 0 -80z"/>
</g>
</svg>
